<?xml version="1.0" encoding="utf-8"?>
<!-- Uploaded to: SVG Repo, www.svgrepo.com, Generator: SVG Repo Mixer Tools -->
<svg width="800px" height="800px" viewBox="0 0 1024 1024" fill="#000000" class="icon"  version="1.1" xmlns="http://www.w3.org/2000/svg"><path d="M615.926 967.672H408.074a7.982 7.982 0 0 1-5.652-2.344l-31.978-31.976a7.988 7.988 0 0 1-2.342-5.652v-111.92a7.98 7.98 0 0 1 7.994-7.994h271.806a7.978 7.978 0 0 1 7.994 7.994v111.92a7.992 7.992 0 0 1-2.342 5.652l-31.976 31.976a7.99 7.99 0 0 1-5.652 2.344z m-204.542-15.99h201.232l27.292-27.292v-100.616H384.09v100.616l27.294 27.292z" fill="" /><path d="M360.1 871.738a8 8 0 0 1-0.414-15.988l303.784-15.988c4.358-0.376 8.166 3.154 8.416 7.558 0.218 4.402-3.152 8.18-7.572 8.398l-303.784 15.988c-0.142 0.032-0.29 0.032-0.43 0.032zM360.1 919.706a8 8 0 0 1-0.414-15.988l303.784-15.988c4.358-0.344 8.166 3.154 8.416 7.556 0.218 4.402-3.152 8.182-7.572 8.4l-303.784 15.988c-0.142 0.032-0.29 0.032-0.43 0.032zM647.902 823.774H376.096a8 8 0 0 1-7.994-7.994v-49.56c-80.184-50.122-127.908-135.872-127.908-230.242 0-149.884 121.928-271.814 271.806-271.814 149.876 0 271.804 121.928 271.804 271.814 0 94.402-47.73 180.152-127.908 230.242v49.558a8 8 0 0 1-7.994 7.996z m-263.812-15.988h255.818v-46.03c0-2.78 1.468-5.402 3.872-6.84 77.664-46.842 124.038-128.69 124.038-218.938 0-141.062-114.762-255.824-255.816-255.824-141.056 0-255.818 114.762-255.818 255.824 0 90.248 46.374 172.096 124.044 218.938a8.006 8.006 0 0 1 3.864 6.84v46.03zM512 999.648c-60.208 0-78.36-34.914-79.1-36.412a7.976 7.976 0 0 1 3.576-10.71 7.986 7.986 0 0 1 10.696 3.498c0.632 1.216 15.138 27.636 64.83 27.636 49.76 0 64.234-26.514 64.828-27.636a8.066 8.066 0 0 1 10.742-3.436c3.904 1.998 5.496 6.744 3.53 10.648-0.752 1.498-18.894 36.412-79.102 36.412zM168.276 543.972H8.36a7.998 7.998 0 0 1-7.994-7.994 7.986 7.986 0 0 1 7.994-8.002h159.916a7.988 7.988 0 0 1 7.996 8.002 8 8 0 0 1-7.996 7.994zM855.754 543.972a7.988 7.988 0 0 1-7.994-7.994 8 8 0 0 1 7.994-7.994l159.886-0.008a7.996 7.996 0 0 1 0 15.996h-159.886zM75.85 795.792a8 8 0 0 1-4.006-14.926l138.496-79.944c3.802-2.216 8.712-0.906 10.922 2.936a7.964 7.964 0 0 1-2.928 10.898L79.84 794.702a7.762 7.762 0 0 1-3.99 1.09zM809.724 372.104a8.042 8.042 0 0 1-6.934-3.998 7.992 7.992 0 0 1 2.936-10.914l138.434-79.942c3.808-2.25 8.712-0.922 10.93 2.92a7.994 7.994 0 0 1-2.936 10.914l-138.434 79.942a7.834 7.834 0 0 1-3.996 1.078zM683.908 246.272a7.846 7.846 0 0 1-3.998-1.078 7.994 7.994 0 0 1-2.936-10.914l79.912-138.448c2.216-3.826 7.088-5.168 10.93-2.92a7.992 7.992 0 0 1 2.936 10.914l-79.912 138.448a8.04 8.04 0 0 1-6.932 3.998zM512.046 200.196a7.996 7.996 0 0 1-7.996-7.994l-0.016-159.856a7.996 7.996 0 0 1 15.99 0l0.016 159.856a7.988 7.988 0 0 1-7.994 7.994zM340.176 246.24a8 8 0 0 1-6.932-3.998L253.3 103.81a7.984 7.984 0 0 1 2.928-10.914c3.802-2.232 8.698-0.906 10.922 2.92l79.944 138.432a7.984 7.984 0 0 1-2.928 10.914 7.876 7.876 0 0 1-3.99 1.078zM948.188 795.762a7.72 7.72 0 0 1-3.996-1.092l-138.464-79.944a7.976 7.976 0 0 1-2.936-10.898 7.988 7.988 0 0 1 10.93-2.936l138.464 79.944a8.012 8.012 0 0 1 2.936 10.93 8.044 8.044 0 0 1-6.934 3.996zM214.33 372.042a7.886 7.886 0 0 1-3.99-1.078l-138.448-79.912a7.984 7.984 0 0 1-2.928-10.914c2.202-3.826 7.088-5.168 10.922-2.92l138.448 79.912a7.984 7.984 0 0 1 2.928 10.914 8.008 8.008 0 0 1-6.932 3.998z" fill="" /><path d="M512 711.854a8.08 8.08 0 0 1-5.786-2.466l-167.88-175.876a8.016 8.016 0 0 1-1.07-9.64l47.966-79.944a7.97 7.97 0 0 1 6.854-3.888h239.83a7.98 7.98 0 0 1 6.854 3.888l47.966 79.944a7.984 7.984 0 0 1-1.078 9.64l-167.874 175.876a8.07 8.07 0 0 1-5.782 2.466z m-157.888-184.986L512 692.274l157.886-165.406-42.502-70.838H396.614l-42.502 70.838z" fill="" /><path d="M647.902 535.978H376.096a8.002 8.002 0 0 1-7.994-8.002 7.99 7.99 0 0 1 7.994-7.994h271.806a7.988 7.988 0 0 1 7.994 7.994 8 8 0 0 1-7.994 8.002z" fill="" /><path d="M504.012 679.876a8.002 8.002 0 0 1-7.16-4.434l-63.954-127.908a7.976 7.976 0 0 1 3.576-10.71c3.952-1.998 8.744-0.376 10.728 3.56l63.954 127.908a8.014 8.014 0 0 1-3.576 10.742 8.106 8.106 0 0 1-3.568 0.842z" fill="" /><path d="M519.986 679.876c-1.204 0-2.42-0.28-3.568-0.842a8.016 8.016 0 0 1-3.576-10.742l63.954-127.908a7.978 7.978 0 0 1 10.726-3.56 7.984 7.984 0 0 1 3.576 10.71l-63.956 127.908a7.988 7.988 0 0 1-7.156 4.434zM567.958 519.982a7.954 7.954 0 0 1-5.2-1.92L512 474.546l-50.762 43.516a7.998 7.998 0 0 1-11.266-0.876 7.986 7.986 0 0 1 0.868-11.274l55.96-47.964a8 8 0 0 1 10.4 0l55.958 47.964a7.978 7.978 0 0 1 0.86 11.274 7.932 7.932 0 0 1-6.06 2.796z" fill="" /><path d="M440.05 519.982a7.978 7.978 0 0 1-5.652-2.342l-47.966-47.966a7.992 7.992 0 1 1 11.304-11.304l47.966 47.966a7.988 7.988 0 0 1 0 11.304 7.96 7.96 0 0 1-5.652 2.342zM583.948 519.982a7.992 7.992 0 0 1-5.652-13.646l47.966-47.966a7.992 7.992 0 1 1 11.304 11.304L589.6 517.64a7.96 7.96 0 0 1-5.652 2.342z" fill="" /><path d="M844.012 455.014a8.008 8.008 0 0 1-7.712-5.918 8.026 8.026 0 0 1 5.652-9.806l78.102-20.938c4.262-1.046 8.648 1.406 9.774 5.652a7.99 7.99 0 0 1-5.652 9.806l-78.07 20.938a8.84 8.84 0 0 1-2.094 0.266zM101.862 653.864a7.986 7.986 0 0 1-7.712-5.902 8.006 8.006 0 0 1 5.652-9.804l78.086-20.954c4.27-1.032 8.65 1.404 9.79 5.652a8.004 8.004 0 0 1-5.652 9.804L103.94 653.614a9.528 9.528 0 0 1-2.078 0.25z" fill="" /><path d="M755.06 300.936a7.97 7.97 0 0 1-5.652-2.342 7.988 7.988 0 0 1 0-11.304l57.146-57.178c3.124-3.124 8.182-3.124 11.304 0s3.124 8.182 0 11.304l-57.146 57.178a7.974 7.974 0 0 1-5.652 2.342zM211.776 844.226a7.988 7.988 0 0 1-5.652-13.644l57.13-57.18a7.992 7.992 0 1 1 11.304 11.304l-57.132 57.18a7.952 7.952 0 0 1-5.65 2.34z" fill="" /><path d="M600.966 211.968c-0.688 0-1.374-0.092-2.06-0.264a7.974 7.974 0 0 1-5.652-9.792l20.862-78.1c1.154-4.264 5.588-6.668 9.79-5.668a8.02 8.02 0 0 1 5.668 9.79l-20.892 78.102c-0.938 3.574-4.186 5.932-7.716 5.932z" fill="" /><path d="M423.024 211.968a8 8 0 0 1-7.712-5.916L394.342 127.98a7.984 7.984 0 0 1 5.644-9.79 7.994 7.994 0 0 1 9.796 5.636l20.97 78.068a7.988 7.988 0 0 1-5.644 9.792 7.908 7.908 0 0 1-2.084 0.282z" fill="" /><path d="M268.922 300.936a7.974 7.974 0 0 1-5.652-2.342l-57.178-57.116a7.992 7.992 0 0 1 0-11.304 7.988 7.988 0 0 1 11.304 0l57.178 57.116a7.992 7.992 0 0 1-5.652 13.646zM812.222 844.226a7.972 7.972 0 0 1-5.652-2.34l-57.178-57.118a7.992 7.992 0 1 1 11.304-11.304l57.178 57.118a7.988 7.988 0 0 1-5.652 13.644z" fill="" /><path d="M179.978 455.044c-0.688 0-1.382-0.094-2.076-0.266L99.8 433.888a7.998 7.998 0 0 1-5.652-9.79c1.14-4.262 5.566-6.682 9.79-5.668l78.1 20.892a7.996 7.996 0 0 1 5.652 9.79 7.988 7.988 0 0 1-7.712 5.932zM922.114 653.894c-0.688 0-1.376-0.094-2.06-0.282l-78.07-20.89c-4.278-1.156-6.808-5.528-5.652-9.774 1.124-4.28 5.558-6.714 9.774-5.684l78.07 20.89a7.988 7.988 0 0 1 5.652 9.804 7.998 7.998 0 0 1-7.714 5.936z" fill="" /></svg>