<?xml version="1.0" ?>
<!DOCTYPE svg  PUBLIC '-//W3C//DTD SVG 1.1//EN'  'http://www.w3.org/Graphics/SVG/1.1/DTD/svg11.dtd'>
<!-- Uploaded to: SVG Repo, www.svgrepo.com, Generator: SVG Repo Mixer Tools -->
<svg fill="#000000" width="800px" height="800px" viewBox="0 0 64 64" style="fill-rule:evenodd;clip-rule:evenodd;stroke-linejoin:round;stroke-miterlimit:2;" version="1.1" xml:space="preserve" xmlns="http://www.w3.org/2000/svg" xmlns:serif="http://www.serif.com/" xmlns:xlink="http://www.w3.org/1999/xlink">
<g id="ICON">
<path d="M14.469,15.792c-0.61,0.557 -1.194,1.142 -1.75,1.754c-0.306,0.338 -0.604,0.684 -0.892,1.037c-3.654,4.478 -5.847,10.195 -5.847,16.42c-0,2.559 0.371,5.032 1.061,7.369c0.156,0.529 0.713,0.832 1.242,0.675c0.53,-0.156 0.832,-0.713 0.676,-1.242c-0.487,-1.648 -0.801,-3.37 -0.923,-5.144l10.497,-0c0.129,3.048 0.695,5.984 1.636,8.748c-2.612,1.064 -5.049,2.472 -7.254,4.166c-0.956,-1.248 -1.792,-2.592 -2.491,-4.016c-0.244,-0.495 -0.843,-0.7 -1.339,-0.457c-0.495,0.244 -0.7,0.843 -0.456,1.339c4.234,8.62 13.103,14.559 23.348,14.559l0.033,-0c14.015,-0.018 25.446,-11.148 25.947,-25.047c0.028,-0.092 0.043,-0.19 0.043,-0.292c-0,-0.084 -0.01,-0.165 -0.03,-0.242c0.003,-0.138 0.004,-0.277 0.004,-0.416c-0,-4.449 -1.121,-8.638 -3.094,-12.301c-0.261,-0.486 -0.868,-0.668 -1.354,-0.407c-0.486,0.262 -0.668,0.869 -0.406,1.355c1.77,3.287 2.796,7.033 2.851,11.011l-10.476,-0c-0.04,-1.924 -0.253,-3.806 -0.626,-5.63c0.086,-0.28 0.131,-0.574 0.131,-0.877l-0,-9.843c0,-0.023 -0.001,-0.046 -0.002,-0.069l2.622,-1.43c1.072,0.923 2.062,1.939 2.957,3.036c0.349,0.428 0.98,0.491 1.407,0.142c0.428,-0.348 0.492,-0.979 0.143,-1.407c-0.811,-0.993 -1.694,-1.926 -2.64,-2.789l1.492,-0.814c0.321,-0.176 0.521,-0.512 0.521,-0.878c-0,-0.366 -0.2,-0.703 -0.521,-0.878l-18.52,-10.102c-0.299,-0.163 -0.659,-0.163 -0.958,0l-18.52,10.102c-0.321,0.175 -0.521,0.512 -0.521,0.878c-0,0.366 0.2,0.702 0.521,0.878l1.488,0.812Zm6.406,31.489c-2.402,0.984 -4.645,2.277 -6.678,3.831c3.796,4.187 9.049,7.029 14.955,7.723c-3.574,-3.144 -6.427,-7.089 -8.277,-11.554Zm22.246,0.025c-1.849,4.451 -4.695,8.385 -8.259,11.522c5.877,-0.705 11.105,-3.539 14.887,-7.707c-2.019,-1.545 -4.245,-2.832 -6.628,-3.815Zm-10.118,-2.182l0,12.664c3.57,-2.993 6.418,-6.82 8.242,-11.181c-2.604,-0.869 -5.37,-1.383 -8.242,-1.483Zm-2,-0.002c-2.873,0.093 -5.642,0.6 -8.25,1.464c1.823,4.369 4.674,8.204 8.25,11.202l0,-12.666Zm24.914,-8.461l-10.444,-0c-0.129,3.058 -0.698,6.003 -1.645,8.773c2.593,1.064 5.013,2.465 7.204,4.15c2.784,-3.631 4.554,-8.081 4.885,-12.923Zm-12.446,-0l-10.468,-0l0,6.462c3.12,0.102 6.125,0.661 8.95,1.612c0.867,-2.552 1.391,-5.261 1.518,-8.074Zm-12.468,6.46l0,-6.46l-10.468,-0c0.127,2.804 0.648,5.506 1.511,8.052c2.828,-0.945 5.836,-1.497 8.957,-1.592Zm12.17,-12.205c-0.01,0.004 -9.095,3.745 -9.095,3.745l9.416,-0c-0.028,-1.27 -0.136,-2.52 -0.321,-3.745Zm-26.173,-13.744l0,10.828c-0,0.552 -0.448,1 -1,1c-0.552,-0 -1,-0.448 -1,-1l-0,-9.95c-0.273,0.274 -0.54,0.554 -0.799,0.84c-0.283,0.312 -0.558,0.631 -0.825,0.958c-3.305,4.051 -5.315,9.2 -5.394,14.813l10.529,-0c0.04,-1.92 0.253,-3.798 0.624,-5.619c-0.088,-0.283 -0.135,-0.582 -0.135,-0.889l0,-9.842c0,-0.016 0,-0.032 0.001,-0.048l-2.001,-1.091Zm3.833,13.745c-0.184,1.225 -0.293,2.474 -0.321,3.744l9.439,-0c0,-0 -9.109,-3.74 -9.118,-3.744Zm22.167,-11.585l-3.021,1.648c-0.485,0.264 -1.093,0.085 -1.357,-0.399c-0.264,-0.485 -0.085,-1.093 0.399,-1.357c0,-0 9.391,-5.122 9.391,-5.122c-0,-0 -16.432,-8.963 -16.432,-8.963c-0,0 -16.432,8.963 -16.432,8.963c0,-0 16.432,8.963 16.432,8.963l3.561,-1.943c0.485,-0.264 1.093,-0.085 1.357,0.399c0.264,0.485 0.085,1.093 -0.399,1.357l-4.04,2.204c-0.299,0.162 -0.659,0.162 -0.958,-0l-10.501,-5.728l-0,8.799c-0,0.406 0.245,0.771 0.62,0.925l10.396,4.269c0,-0 10.365,-4.268 10.365,-4.268c0.374,-0.154 0.619,-0.519 0.619,-0.925l-0,-8.822Z"/>
</g>
</svg>