<?xml version="1.0" encoding="iso-8859-1"?>
<!-- Uploaded to: SVG Repo, www.svgrepo.com, Generator: SVG Repo Mixer Tools -->
<svg version="1.1" id="Layer_1" xmlns="http://www.w3.org/2000/svg" xmlns:xlink="http://www.w3.org/1999/xlink" 
	 viewBox="0 0 512.024 512.024" xml:space="preserve">
<g>
	<rect x="245.342" y="100.112" style="fill:#CCD1D9;" width="21.336" height="152.25"/>
	<polygon style="fill:#CCD1D9;" points="100.094,439.731 256.391,316.981 412.68,439.731 444.836,439.731 256.391,291.731 
		67.922,439.731 	"/>
</g>
<path style="fill:#434A54;" d="M319.992,309.356c0,35.344-28.625,64-63.992,64c-35.344,0-64-28.656-64-64
	c0-35.359,28.656-64.008,64-64.008C291.367,245.348,319.992,273.996,319.992,309.356z"/>
<g>
	<path style="fill:#ED5565;" d="M309.336,53.348c0,29.453-23.875,53.328-53.336,53.328c-29.453,0-53.328-23.875-53.328-53.328
		c0-29.461,23.875-53.336,53.328-53.336C285.461,0.012,309.336,23.887,309.336,53.348z"/>
	<path style="fill:#ED5565;" d="M512.024,458.668c0,29.469-23.906,53.344-53.344,53.344c-29.469,0-53.344-23.875-53.344-53.344
		c0-29.438,23.875-53.312,53.344-53.312C488.117,405.356,512.024,429.231,512.024,458.668z"/>
	<path style="fill:#ED5565;" d="M106.672,458.668c0,29.469-23.875,53.344-53.328,53.344S0,488.137,0,458.668
		c0-29.438,23.891-53.312,53.344-53.312S106.672,429.231,106.672,458.668z"/>
</g>
</svg>