<?xml version="1.0" encoding="utf-8"?>
<!-- Uploaded to: SVG Repo, www.svgrepo.com, Generator: SVG Repo Mixer Tools -->
<svg width="800px" height="800px" viewBox="-4.05 0 365.419 365.419" xmlns="http://www.w3.org/2000/svg"><defs><style>.a{fill:#fce0cd;}.b{fill:#211916;}.c{fill:#f5e06c;}</style></defs><path class="a" d="M74.947,349.208c1.495-6.049,2.887-12.2,2.787-18.429s-.887-12.807-4.988-17.5a73.742,73.742,0,0,1-11.879-13.1c-11.617-16.688-14.306-37.983-17.782-57.759-2.884-9.56-8.346-42.75-17.59-64.039-6.08-12.552-10.219-25.122-11.509-38.8-.5-5.307.8-11.581,5.312-14.411,2.584-1.619,9.449-2.465,12.33-1.468a36.628,36.628,0,0,1,9.39,5.771c11.81,9.95,16.555,20.717,20.388,35.53,1.479,4.827,8.5,19.762,15.173,31.416,5.78-2.452,11.53-8.939,14.7-13.9,1.461-5.92,10.2-27.839,11.064-34.134,4.218-20.184,5.655-29.424,8.17-48.619,1.914-14.611,5.019-35.8,7.184-47.437.646-11.41,4.718-31.226,6.8-35.26s5.735-7.38,10.275-7.51c7.655-.219,11.676,3.873,15.123,9.848,3.743,6.491,3.279,22.26.581,37.629-.67,16.283-3.626,34.382-4.927,44.969-1.531,15.852-2.826,32.143-3.717,50.008-.026,5.239,14.725,6.289,16.936,3.122,3.114-9.937,12.532-40.86,16.193-52.883,2.289-11.375,13.324-50.3,15.945-59.206,3.4-11.539,5.455-22.815,11.916-33.416,4.871-7.994,15.515-7.988,18.933-6.4s6.7,6.822,7.517,10.755c2.267,10.8-4.995,33.429-6.269,38.436-.118.466-8.812,39.339-13.324,55.164-4.342,19.622-8.408,39.171-12.673,59.2.711,4,9.866,8.534,15.045,5.782,6.578-6.064,19.222-29.289,23.319-37.936,5.83-13.417,15.46-32.151,19.742-42.057l16.812-33.091c2.573-5.064,5.91-10.744,12.047-10.8A10.382,10.382,0,0,1,291.71,52.3c4.043,4.533,4.5,10.65,4.131,16.417-.654,10.287-5.143,24.354-9.853,33.523-3.292,8.443-15.911,37.689-20.566,46.036-2.376,7.755-14.9,34.389-17.026,39.158-2.159,4.98.787,10.294,3.253,11.6,2.608,1.381,5.407,2.712,7.413.526a377.735,377.735,0,0,1,30.749-22.386c5.337-4.822,12.348-10.766,18.133-15.022,7-6.967,16.533-14.044,24.761-14.364a13.28,13.28,0,0,1,5,.595,7.968,7.968,0,0,1,4.054,5.269c1.092,3.975.024,8.3-2,11.884s-4.948,6.577-7.834,9.521c-3.328,3.394-7.876,8.843-11.2,12.237l-23.8,23.679A239.252,239.252,0,0,1,269.943,236.8c-2.281,1.865-4.595,3.688-6.91,5.511-3.926,3.093-8.251,12.3-14.422,23.536-5.688,15.64-28.45,56.844-35.812,65.508-5.131,6.037-14.986,13.716-20.931,18.954a41.779,41.779,0,0,0-1.063,12.8"/><path class="b" d="M93.352,217.064c-3.423-5.685-7.844-10.683-11.376-16.3-2.946-4.684-5.613-9.546-8.17-14.451-2.482-4.761-4.857-9.582-7.063-14.477-.88-1.953-1.414-3.16-2.139-5.011-.756-1.93-1.248-3.906-1.812-5.9A81.209,81.209,0,0,0,56.275,144.2a56.174,56.174,0,0,0-10.611-13.788,51.646,51.646,0,0,0-7.434-5.948c-2.215-1.442-4.72-3-7.38-3.392a23.827,23.827,0,0,0-8.59.482,12.259,12.259,0,0,0-6.693,3.638c-4.322,4.834-4.4,11.494-3.629,17.558a106.419,106.419,0,0,0,5.084,21.55c2.286,6.567,5.494,12.714,7.983,19.188,2.126,5.533,3.894,11.2,5.5,16.906,3.053,10.867,5.436,21.9,7.892,32.91.435,1.95.874,3.9,1.344,5.841.381,1.572.9,3.132,1.176,4.724,1.176,6.741,2.254,13.5,3.626,20.2,2.7,13.2,6.646,26.55,14.51,37.676a72.863,72.863,0,0,0,7.183,8.644c2.312,2.387,5.075,4.336,6.635,7.328a23.82,23.82,0,0,1,2.284,9.056,49.907,49.907,0,0,1-.222,10.679,104.274,104.274,0,0,1-2.3,11.114c-.739,3,3.889,4.278,4.629,1.276,1.808-7.334,3.243-14.678,2.749-22.267A33.4,33.4,0,0,0,78.2,318a20.893,20.893,0,0,0-2.182-4.373,22.764,22.764,0,0,0-3.545-3.833,67.359,67.359,0,0,1-12.842-16.114,85.338,85.338,0,0,1-7.4-18.23,195.821,195.821,0,0,1-4.41-19.687c-.977-5.416-1.673-10.91-3.044-16.239-2.358-9.162-4.115-18.478-6.341-27.674-2.8-11.55-5.927-23.116-10.6-34.065-1.389-3.251-2.981-6.4-4.29-9.692-1.331-3.342-2.522-6.74-3.542-10.19a102.5,102.5,0,0,1-2.512-10.44,56.44,56.44,0,0,1-1.2-9.957,15.079,15.079,0,0,1,1.7-7.511,7.316,7.316,0,0,1,4.937-3.667,20.247,20.247,0,0,1,6.917-.591c2.512.368,4.894,2.112,6.931,3.512,9.369,6.436,15.8,16.236,19.486,26.845,1.517,4.361,2.436,8.9,4.19,13.174,1.8,4.387,3.818,8.685,5.911,12.938,4.879,9.918,10.119,19.716,16.764,28.574a104.061,104.061,0,0,1,6.088,8.7c1.592,2.644,5.744.233,4.145-2.422Z"/><path class="b" d="M78.382,198.212c5.914-2.888,11.343-8.445,14.7-14.076a25.3,25.3,0,0,0,1.725-4.978c.723-2.172,1.487-4.331,2.252-6.489,1.757-4.955,3.554-9.9,5.192-14.9a119.1,119.1,0,0,0,3.382-13.481c5.4-26.4,8.128-53.189,12.4-79.773.888-5.525,1.838-10.976,2.423-16.536a176.608,176.608,0,0,1,2.852-17.573c.529-2.533,1.1-5.06,1.773-7.559.257-.954.528-1.907.835-2.847.109-.336.225-.669.345-1,.232-.645-.016-.073.236-.582a11.812,11.812,0,0,1,5.923-5.983,11.2,11.2,0,0,1,8.235.557c4.425,2.063,7.568,7.084,8.627,11.715,1.493,6.53,1.043,13.6.432,20.209-.375,4.06-1.251,8.062-1.636,12.109-.366,3.852-.441,7.74-.794,11.6-.675,7.367-1.62,14.707-2.619,22.037-1.959,14.375-3.181,28.808-4.166,43.283q-.422,6.195-.766,12.4c-.152,2.723-1.015,6.168.622,8.6,2.363,3.5,7.758,4.3,11.634,4.371a16.154,16.154,0,0,0,5.884-.807,5.363,5.363,0,0,0,3.582-3.925q1.956-6.271,3.873-12.555,4.9-15.957,9.753-31.928c2.32-7.615,4.053-15.352,6.08-23.051,2.66-10.1,5.453-20.16,8.291-30.208,2.675-9.468,5.22-18.992,8.03-28.418A88.7,88.7,0,0,1,201.3,17.737c1.369-3.085,2.876-6.636,5.3-9.053A14.929,14.929,0,0,1,218.968,4.92a9.4,9.4,0,0,1,1.075.233c.195.054.388.112.578.181.405.146-.488-.245.117.056a9.588,9.588,0,0,1,3.22,2.886,15.8,15.8,0,0,1,3.19,7.406c.652,5.057-.265,10.386-1.222,15.343-1.414,7.328-3.789,14.382-5.435,21.641-3.905,17.216-7.727,34.485-12.358,51.523-1.9,6.993-3.265,14.142-4.786,21.227q-2.657,12.368-5.262,24.745-1.321,6.246-2.647,12.489c-.34,1.6-1.129,3.562-.634,5.186a8.139,8.139,0,0,0,1.952,3.148c3.552,3.746,10.206,6.024,15.191,4.227,1.99-.718,3.272-2.4,4.555-4.005,1.5-1.88,2.9-3.842,4.239-5.841,3.116-4.65,5.968-9.478,8.716-14.353,5.347-9.487,9.736-19.322,14.415-29.144,5.681-11.925,11.216-23.953,17.2-35.727l11.64-22.909c2.341-4.608,5.421-12.613,11.821-12.144,7.339.537,9.111,9.534,9.006,15.388-.122,6.776-1.751,13.5-3.768,19.937-1.81,5.779-4.443,11.1-6.689,16.693-1.565,3.9-3.21,7.766-4.866,11.627-4.043,9.42-8.127,18.849-12.651,28.05-.75,1.524-1.67,3.012-2.333,4.572-.639,1.5-1.093,3.1-1.693,4.627-1.722,4.373-3.623,8.677-5.533,12.971q-3.049,6.853-6.194,13.665c-1.406,3.064-3.4,6.331-4.208,9.623a12.055,12.055,0,0,0,8.827,14.59c4.016,1.039,6.373-1.625,9.283-3.922q4.894-3.862,9.909-7.569,4.926-3.642,9.97-7.123c3.159-2.176,6.528-4.113,9.394-6.667q4.128-3.678,8.391-7.2c2.76-2.28,5.833-4.305,8.477-6.7,5.319-4.825,10.744-9.875,17.653-12.327,2.633-.935,5.769-1.608,8.553-.933,3.244.788,3.96,5.025,3.68,7.833-.739,7.4-7.148,12.489-11.825,17.6-5,5.465-9.969,10.854-15.222,16.081-6.035,6-12.441,11.8-18.138,18.126A238.712,238.712,0,0,1,277.6,227.039q-4.449,4.038-9.1,7.849c-2.673,2.193-5.732,4.16-8.159,6.623-3.988,4.047-6.555,9.643-9.207,14.588-1.7,3.177-3.772,6.352-5.067,9.715-.619,1.608-1.269,3.2-1.963,4.778-1.906,4.334-3.978,8.6-6.106,12.825q-7.339,14.583-15.59,28.694c-2.289,3.918-4.627,7.812-7.105,11.615a49.852,49.852,0,0,1-5.946,7.857,173.341,173.341,0,0,1-14.237,12.791q-1.684,1.419-3.359,2.85c-1.386,1.19-2.121,1.9-2.51,3.768a45.432,45.432,0,0,0-.85,12.118c.194,3.068,5,3.09,4.8,0a44.294,44.294,0,0,1,.01-6.107c.068-.914.165-1.826.3-2.733.085-.559.188-1.115.3-1.67.027-.139.363-1.386.087-.9a9.116,9.116,0,0,1,1.817-1.568q.781-.668,1.568-1.331,2-1.687,4-3.372c4.706-3.985,9.65-8,13.558-12.8,5.1-6.268,9.1-13.548,13.122-20.526,5.467-9.49,10.676-19.14,15.525-28.961,2.06-4.172,4.052-8.38,5.853-12.671a64.594,64.594,0,0,1,2.682-5.88c1.8-3.325,3.554-6.675,5.379-9.986a79.028,79.028,0,0,1,4.542-7.521A25.751,25.751,0,0,1,267.4,241.9c6.395-5.066,12.587-10.369,18.474-16.02,5.966-5.725,11.442-11.912,17.3-17.74L321.4,190c4.841-4.816,9.22-10.089,13.944-15.021,5.036-5.259,9.954-11.8,9.164-19.517-.352-3.439-1.887-6.884-4.9-8.772-2.48-1.552-5.911-1.5-8.715-1.129-7.048.936-13.348,5.169-18.741,9.559-2.8,2.276-5.31,4.835-8.165,7.035q-4.414,3.4-8.659,7.016c-2.755,2.333-5.353,5.021-8.371,7q-5.036,3.308-9.944,6.8-5.033,3.575-9.947,7.311-2.439,1.853-4.854,3.738a51.783,51.783,0,0,1-5.024,4c-1.19.7-2.689-.208-3.8-.787a5.542,5.542,0,0,1-2.516-2.673,7.849,7.849,0,0,1,.061-6.936c3.7-8.138,7.484-16.239,11.061-24.433,1.771-4.058,3.557-8.127,5.07-12.289a25.137,25.137,0,0,1,1.678-3.765c.925-1.812,1.806-3.647,2.676-5.487,4.531-9.582,8.765-19.312,12.892-29.075,4.3-10.178,9.112-20.173,11.794-30.944,1.624-6.517,2.843-13.494,1.965-20.213-.861-6.588-4.727-13.611-11.8-14.928-6.675-1.242-11.616,3.346-14.752,8.7-4.055,6.929-7.392,14.361-11.028,21.517-6.3,12.394-12.2,24.953-18.237,37.477-4.883,10.135-9.3,20.472-14.692,30.354-2.743,5.029-5.6,10-8.655,14.849-2.32,3.675-4.724,7.989-7.992,10.935-1.264,1.14-4.376.639-6.333-.033-1.719-.59-4.314-1.839-5.094-3.6-.108-.244,0-.49,0,.017a7.953,7.953,0,0,1,.3-1.4l.666-3.135,1.4-6.6q1.315-6.213,2.631-12.427c2.981-14.067,5.846-28.156,9.455-42.074,2.629-10.14,5.027-20.34,7.4-30.543,1.352-5.822,2.574-11.684,4-17.488,2.252-9.142,5.1-18.033,6.3-27.418.634-4.955,1.014-10.336-.919-15.061C228.721,5.728,225.115.983,219.646.2a20.056,20.056,0,0,0-14.411,3.379c-5.643,4.131-8.409,11.817-10.647,18.183-2.414,6.868-4.045,13.981-6.088,20.963q-1.4,4.782-2.752,9.578-4.248,14.955-8.287,29.971c-2.1,7.856-3.753,15.86-6.12,23.634q-4.814,15.8-9.644,31.59-2.125,6.936-4.267,13.868c-.236.762-.526,1.528-.716,2.3-.031.126-.184.358-.149.475l-.036.116q.767-1.072.312-.559c.025.029-.359.207-.241.167a14.03,14.03,0,0,1-5.326.61,14.774,14.774,0,0,1-5.5-1.2,6.917,6.917,0,0,1-1.4-.965c-.136-.116-.156-.345-.121-.078a17.589,17.589,0,0,1,.137-3.081q.657-12.459,1.624-24.9c.591-7.627,1.11-15.3,2.025-22.893.782-6.481,1.77-12.936,2.584-19.414.96-7.646,1.782-15.318,2.177-23.016.206-4.024,1.1-8.024,1.526-12.036a112.459,112.459,0,0,0,.686-11.427c.026-5.659-.194-12.045-2.952-17.142-2.685-4.963-6.837-9.515-12.549-10.751a15.238,15.238,0,0,0-9.4.651,16.12,16.12,0,0,0-6.892,6.25c-2.228,3.508-3.038,7.924-3.938,11.915-1.341,5.95-2.395,11.969-3.19,18.016-.344,2.611-.464,5.254-.811,7.858-.364,2.726-.962,5.439-1.409,8.154-2.189,13.294-4.084,26.639-5.839,40-1.751,13.325-3.8,26.577-6.445,39.756a137.806,137.806,0,0,1-3.469,14.808c-1.581,4.968-3.358,9.873-5.105,14.785-.766,2.155-1.533,4.31-2.275,6.475-.566,1.652-.962,3.428-1.615,5.043-.948,2.344-3.276,4.668-5.023,6.508a28.758,28.758,0,0,1-8.135,6.268c-2.776,1.355-.345,5.5,2.422,4.145Z"/><path class="b" d="M101.659,240.454c4.957,7.416,11.7,13.475,17.534,20.167a48.506,48.506,0,0,1,7.057,9.729,43.673,43.673,0,0,1,3.26,10.351,61.01,61.01,0,0,1,1.2,16.738,2.4,2.4,0,0,0,4.8,0,61.753,61.753,0,0,0-4.346-27.815,41.946,41.946,0,0,0-6.515-9.961c-3.014-3.679-6.307-7.117-9.55-10.591a89.492,89.492,0,0,1-9.3-11.041c-1.709-2.555-5.868-.155-4.145,2.423Z"/><path class="b" d="M118.863,209.739l19.438,2.709a57.851,57.851,0,0,1,6.44,1.146c5.032,1.285,10,2.819,14.97,4.336q20.1,6.147,40.023,12.9c2.71.921,5.417,1.851,8.109,2.821.921.331,1.84.667,2.753,1.017.34.131.679.267,1.018.4.6.235-.084-.033-.061-.029a1.841,1.841,0,0,1,.352.156,2.471,2.471,0,0,0,3.284-.861,2.419,2.419,0,0,0-.861-3.283c-3.565-1.634-7.37-2.812-11.072-4.083-6.273-2.153-12.572-4.229-18.88-6.277-12.241-3.975-24.507-8.018-36.94-11.357a42.676,42.676,0,0,0-5.187-1.146l-22.11-3.082a2.482,2.482,0,0,0-2.952,1.677,2.417,2.417,0,0,0,1.676,2.952Z"/><ellipse class="c" cx="34.718" cy="71.882" rx="32.4" ry="31.177"/><path class="b" d="M67.118,69.482c-12.324-.066-23.959-7.495-28.257-19.244a28.027,28.027,0,0,1-1.743-9.533c-.017-3.089-4.78-3.094-4.8,0-.076,11.809-8.687,22.662-19.541,26.8a29.731,29.731,0,0,1-10.459,1.98c-3.088.019-3.093,4.783,0,4.8,12.012.068,23.65,7.605,28.08,18.9a27.377,27.377,0,0,1,1.92,9.876c.019,3.088,4.784,3.093,4.8,0A28.879,28.879,0,0,1,56.08,76.18a32.968,32.968,0,0,1,11.038-1.9c3.088-.015,3.095-4.815,0-4.8a35.861,35.861,0,0,0-20.5,6.261A33.951,33.951,0,0,0,34.324,91.7a33.28,33.28,0,0,0-2.006,11.356h4.8c-.086-14.184-9.871-26.612-22.955-31.469A34.7,34.7,0,0,0,2.318,69.482v4.8c14.257-.086,27.32-9.38,32.626-22.515a30.127,30.127,0,0,0,2.174-11.062h-4.8C32.4,54.728,41.745,67.242,54.751,72.11a35.908,35.908,0,0,0,12.367,2.172C70.207,74.3,70.211,69.5,67.118,69.482Z"/><ellipse class="c" cx="322.596" cy="284.433" rx="32.4" ry="31.177"/><path class="b" d="M355,282.033c-12.324-.066-23.959-7.5-28.257-19.245A28.023,28.023,0,0,1,325,253.255c-.017-3.088-4.78-3.093-4.8,0-.077,11.81-8.687,22.663-19.542,26.8a29.744,29.744,0,0,1-10.458,1.98c-3.088.019-3.094,4.782,0,4.8,12.012.068,23.65,7.6,28.08,18.9a27.389,27.389,0,0,1,1.92,9.875c.019,3.089,4.784,3.094,4.8,0a28.879,28.879,0,0,1,18.962-26.879,32.968,32.968,0,0,1,11.038-1.9c3.088-.016,3.094-4.816,0-4.8a35.843,35.843,0,0,0-20.5,6.261,33.946,33.946,0,0,0-12.3,15.961A33.255,33.255,0,0,0,320.2,315.61H325c-.086-14.183-9.871-26.611-22.956-31.469a34.693,34.693,0,0,0-11.844-2.108v4.8c14.257-.086,27.319-9.381,32.626-22.516A30.123,30.123,0,0,0,325,253.255h-4.8c.079,14.023,9.427,26.538,22.433,31.405A35.909,35.909,0,0,0,355,286.833C358.085,286.849,358.089,282.049,355,282.033Z"/><ellipse class="c" cx="269.796" cy="297.439" rx="16.844" ry="16.209"/><path class="b" d="M286.64,295.039c-7.644-.079-14.36-6.007-14.444-13.809-.033-3.089-4.762-3.093-4.8,0-.093,7.558-7.072,13.724-14.444,13.809-3.088.035-3.094,4.766,0,4.8,7.512.081,14.354,6.113,14.444,13.808.036,3.088,4.769,3.094,4.8,0,.081-7.956,6.674-13.733,14.444-13.808,3.087-.03,3.1-4.83,0-4.8a19.714,19.714,0,0,0-13.829,5.56,18.7,18.7,0,0,0-5.415,13.048h4.8c-.12-10.315-9.112-18.5-19.244-18.608v4.8c9.992-.116,19.118-8.428,19.244-18.609h-4.8c.112,10.447,9,18.5,19.244,18.609C289.73,299.87,289.732,295.07,286.64,295.039Z"/></svg>