<?xml version="1.0" encoding="iso-8859-1"?>
<!-- Uploaded to: SVG Repo, www.svgrepo.com, Generator: SVG Repo Mixer Tools -->
<!DOCTYPE svg PUBLIC "-//W3C//DTD SVG 1.1//EN" "http://www.w3.org/Graphics/SVG/1.1/DTD/svg11.dtd">
<svg version="1.1" id="Capa_1" xmlns="http://www.w3.org/2000/svg" xmlns:xlink="http://www.w3.org/1999/xlink" 
	 viewBox="0 0 428.393 428.393" xml:space="preserve">
<g>
	<path style="fill:#7C6655;" d="M294.534,417.277h124.603c5.112,0,9.256-4.144,9.256-9.256v-77.234c0-5.112-4.144-9.256-9.256-9.256
		h-65.443l-36.047-25.137v25.137h-23.113c-5.112,0-9.256,4.144-9.256,9.256v77.234C285.278,413.133,289.422,417.277,294.534,417.277
		z"/>
	<path style="fill:#E77200;" d="M133.859,11.116H9.256C4.144,11.116,0,15.26,0,20.372l0,77.234c0,5.112,4.144,9.256,9.256,9.256
		h65.443l36.047,25.137v-25.137h23.113c5.112,0,9.256-4.144,9.256-9.256V20.372C143.114,15.26,138.97,11.116,133.859,11.116z"/>
	<g>
		<rect x="26.557" y="37.989" style="fill:#7C6655;" width="90" height="15"/>
		<rect x="26.557" y="64.989" style="fill:#7C6655;" width="90" height="15"/>
	</g>
	<g>
		<rect x="311.835" y="348.404" style="fill:#FCF4DE;" width="90" height="15"/>
		<rect x="311.835" y="375.404" style="fill:#FCF4DE;" width="90" height="15"/>
	</g>
	<g>
		<path style="fill:#88C9B3;" d="M321.752,213.416c0,1.46-0.029,2.914-0.087,4.362c-1.064,26.446-11.743,50.415-28.645,68.51
			c-1.983,2.129-4.054,4.17-6.212,6.136c-11.307,10.283-24.83,18.176-39.772,22.875c-10.114,3.182-20.886,4.897-32.059,4.897
			s-21.939-1.716-32.059-4.897c-14.942-4.694-28.471-12.592-39.777-22.875c-2.152-1.966-4.223-4.007-6.212-6.136
			c-16.902-18.094-27.581-42.063-28.645-68.51c-0.058-1.448-0.087-2.902-0.087-4.362s0.029-2.914,0.087-4.362
			c1.064-26.446,11.749-50.415,28.639-68.51c1.995-2.123,4.066-4.17,6.218-6.13c11.307-10.283,24.835-18.182,39.777-22.875
			c10.12-3.182,20.886-4.897,32.059-4.897s21.945,1.716,32.059,4.897c14.942,4.699,28.465,12.592,39.772,22.875
			c2.158,1.96,4.228,4.007,6.218,6.13c16.89,18.094,27.575,42.063,28.639,68.51C321.723,210.502,321.752,211.956,321.752,213.416z"
			/>
		<g>
			<path style="fill:#51B7A6;" d="M293.019,286.287c-1.983,2.129-4.054,4.17-6.212,6.136c-3.176-3.129-6.526-6.026-10.021-8.684
				c-2.327-1.768-4.723-3.432-7.177-4.984c-7.363-4.665-15.262-8.341-23.527-10.958c-2.78-0.89-5.595-1.652-8.451-2.292
				c-7.352-1.658-14.942-2.507-22.654-2.507s-15.303,0.849-22.654,2.507c-2.856,0.64-5.677,1.407-8.457,2.292
				c-8.265,2.623-16.163,6.299-23.527,10.958c-2.454,1.553-4.845,3.216-7.171,4.984c-3.501,2.658-6.846,5.555-10.027,8.684
				c-2.152-1.966-4.223-4.007-6.212-6.136c3.81-3.757,7.84-7.206,12.069-10.33c2.373-1.757,4.798-3.414,7.288-4.961
				c8.212-5.124,17.03-9.132,26.26-11.935c0.11-0.035,0.215-0.064,0.326-0.099c0.512-0.151,1.024-0.302,1.535-0.448
				c0.285-0.081,0.576-0.163,0.861-0.238c0.105-0.029,0.204-0.058,0.308-0.087c0.366-0.099,0.739-0.198,1.111-0.297
				c0.186-0.047,0.378-0.099,0.564-0.145c0.029-0.006,0.058-0.017,0.087-0.023c0.064-0.017,0.128-0.029,0.192-0.047
				c0.355-0.093,0.71-0.18,1.064-0.262c0.256-0.064,0.512-0.128,0.768-0.186c0.279-0.07,0.558-0.128,0.838-0.192
				c0.279-0.064,0.553-0.128,0.832-0.186c7.782-1.704,15.797-2.577,23.945-2.577s16.163,0.872,23.945,2.577
				c2.862,0.622,5.694,1.361,8.486,2.21c9.23,2.803,18.048,6.811,26.255,11.935c2.489,1.547,4.921,3.205,7.294,4.961
				C285.179,279.087,289.21,282.536,293.019,286.287z"/>
			<path style="fill:#51B7A6;" d="M293.025,140.544c-3.81,3.757-7.84,7.206-12.069,10.33c-2.373,1.762-4.804,3.42-7.294,4.967
				c-8.207,5.124-17.024,9.131-26.249,11.929v0.006c-0.582,0.175-1.163,0.349-1.751,0.512c-0.285,0.081-0.576,0.163-0.867,0.244
				c-0.529,0.145-1.064,0.291-1.599,0.43c-0.634,0.163-1.262,0.326-1.896,0.477c-0.233,0.058-0.471,0.116-0.71,0.169
				c-0.553,0.134-1.111,0.256-1.669,0.378c-7.782,1.704-15.797,2.577-23.945,2.577s-16.163-0.872-23.945-2.577
				c-2.867-0.622-5.7-1.361-8.492-2.21v-0.006c-9.225-2.798-18.042-6.805-26.255-11.929c-2.489-1.547-4.915-3.205-7.288-4.961
				c-4.228-3.129-8.265-6.578-12.075-10.335c1.995-2.123,4.066-4.17,6.218-6.13c3.181,3.135,6.526,6.032,10.027,8.684
				c2.327,1.768,4.717,3.432,7.171,4.979c7.363,4.665,15.262,8.34,23.527,10.964c2.78,0.884,5.595,1.652,8.451,2.292
				c7.357,1.658,14.942,2.507,22.66,2.507c7.718,0,15.303-0.849,22.66-2.507c2.856-0.64,5.671-1.407,8.451-2.292
				c8.265-2.623,16.158-6.299,23.521-10.958c2.455-1.553,4.851-3.216,7.177-4.984c3.496-2.652,6.846-5.549,10.021-8.684
				C288.965,136.374,291.036,138.421,293.025,140.544z"/>
		</g>
		<path style="fill:#51B7A6;" d="M250.305,209.053c-0.163-14.459-1.152-28.436-2.891-41.278c-0.582,0.175-1.163,0.349-1.751,0.512
			c-0.285,0.081-0.576,0.163-0.867,0.244c-0.529,0.145-1.064,0.291-1.599,0.43c-0.634,0.163-1.262,0.326-1.896,0.477
			c-0.233,0.058-0.471,0.116-0.71,0.169c-0.553,0.134-1.111,0.256-1.669,0.378c1.53,11.574,2.501,24.655,2.658,39.068
			c0.023,1.442,0.029,2.896,0.029,4.362c0,1.466-0.006,2.92-0.029,4.362h8.724c0.023-1.448,0.029-2.902,0.029-4.362
			S250.328,210.502,250.305,209.053z M188.373,217.778h-8.724c0.163,14.465,1.152,28.441,2.896,41.284
			c0.11-0.035,0.215-0.064,0.326-0.099c0.512-0.151,1.024-0.302,1.535-0.448c0.285-0.081,0.576-0.163,0.861-0.238
			c0.105-0.029,0.204-0.058,0.308-0.087c0.366-0.099,0.739-0.198,1.111-0.297c0.186-0.047,0.378-0.099,0.564-0.145
			c0.029-0.006,0.058-0.017,0.087-0.023c0.064-0.017,0.128-0.029,0.192-0.047c0.355-0.087,0.71-0.18,1.064-0.262
			c0.256-0.064,0.512-0.128,0.768-0.186c0.279-0.07,0.558-0.128,0.838-0.192c0.279-0.064,0.553-0.128,0.832-0.186
			C189.502,245.271,188.53,232.19,188.373,217.778z M250.305,209.053c-0.163-14.459-1.152-28.436-2.891-41.278
			c-0.582,0.175-1.163,0.349-1.751,0.512c-0.285,0.081-0.576,0.163-0.867,0.244c-0.529,0.145-1.064,0.291-1.599,0.43
			c-0.634,0.163-1.262,0.326-1.896,0.477c-0.233,0.058-0.471,0.116-0.71,0.169c-0.553,0.134-1.111,0.256-1.669,0.378
			c1.53,11.574,2.501,24.655,2.658,39.068c0.023,1.442,0.029,2.896,0.029,4.362c0,1.466-0.006,2.92-0.029,4.362h8.724
			c0.023-1.448,0.029-2.902,0.029-4.362S250.328,210.502,250.305,209.053z M188.373,217.778h-8.724
			c0.163,14.465,1.152,28.441,2.896,41.284c0.11-0.035,0.215-0.064,0.326-0.099c0.512-0.151,1.024-0.302,1.535-0.448
			c0.285-0.081,0.576-0.163,0.861-0.238c0.105-0.029,0.204-0.058,0.308-0.087c0.366-0.099,0.739-0.198,1.111-0.297
			c0.186-0.047,0.378-0.099,0.564-0.145c0.029-0.006,0.058-0.017,0.087-0.023c0.064-0.017,0.128-0.029,0.192-0.047
			c0.355-0.093,0.71-0.18,1.064-0.262c0.256-0.064,0.512-0.128,0.768-0.186c0.279-0.07,0.558-0.128,0.838-0.192
			c0.279-0.064,0.553-0.128,0.832-0.186C189.502,245.271,188.53,232.19,188.373,217.778z M250.305,209.053
			c-0.163-14.459-1.152-28.436-2.891-41.278c-0.582,0.175-1.163,0.349-1.751,0.512c-0.285,0.081-0.576,0.163-0.867,0.244
			c-0.529,0.145-1.064,0.291-1.599,0.43c-0.634,0.163-1.262,0.326-1.896,0.477c-0.233,0.058-0.471,0.116-0.71,0.169
			c-0.553,0.134-1.111,0.256-1.669,0.378c1.53,11.574,2.501,24.655,2.658,39.068c0.023,1.442,0.029,2.896,0.029,4.362
			c0,1.466-0.006,2.92-0.029,4.362h8.724c0.023-1.448,0.029-2.902,0.029-4.362S250.328,210.502,250.305,209.053z M188.373,217.778
			h-8.724c0.163,14.465,1.152,28.441,2.896,41.284c0.11-0.035,0.215-0.064,0.326-0.099c0.512-0.151,1.024-0.302,1.535-0.448
			c0.285-0.081,0.576-0.163,0.861-0.238c0.105-0.029,0.204-0.058,0.308-0.087c0.366-0.099,0.739-0.198,1.111-0.297
			c0.186-0.047,0.378-0.099,0.564-0.145c0.029-0.006,0.058-0.017,0.087-0.023c0.064-0.017,0.128-0.029,0.192-0.047
			c0.355-0.087,0.71-0.18,1.064-0.262c0.256-0.064,0.512-0.128,0.768-0.186c0.279-0.07,0.558-0.128,0.838-0.192
			c0.279-0.064,0.553-0.128,0.832-0.186C189.502,245.271,188.53,232.19,188.373,217.778z M250.305,209.053
			c-0.163-14.459-1.152-28.436-2.891-41.278c-0.582,0.175-1.163,0.349-1.751,0.512c-0.285,0.081-0.576,0.163-0.867,0.244
			c-0.529,0.145-1.064,0.291-1.599,0.43c-0.634,0.163-1.262,0.326-1.896,0.477c-0.233,0.058-0.471,0.116-0.71,0.169
			c-0.553,0.134-1.111,0.256-1.669,0.378c1.53,11.574,2.501,24.655,2.658,39.068c0.023,1.442,0.029,2.896,0.029,4.362
			c0,1.466-0.006,2.92-0.029,4.362h8.724c0.023-1.448,0.029-2.902,0.029-4.362S250.328,210.502,250.305,209.053z M188.373,217.778
			h-8.724c0.163,14.465,1.152,28.441,2.896,41.284c0.11-0.035,0.215-0.064,0.326-0.099c0.512-0.151,1.024-0.302,1.535-0.448
			c0.285-0.081,0.576-0.163,0.861-0.238c0.105-0.029,0.204-0.058,0.308-0.087c0.366-0.099,0.739-0.198,1.111-0.297
			c0.186-0.047,0.378-0.099,0.564-0.145c0.029-0.006,0.058-0.017,0.087-0.023c0.064-0.017,0.128-0.029,0.192-0.047
			c0.355-0.087,0.71-0.18,1.064-0.262c0.256-0.064,0.512-0.128,0.768-0.186c0.279-0.07,0.558-0.128,0.838-0.192
			c0.279-0.064,0.553-0.128,0.832-0.186C189.502,245.271,188.53,232.19,188.373,217.778z M294.648,209.053
			c-0.576-21.043-5.328-41.074-13.691-58.18c-1.297-2.664-2.687-5.258-4.17-7.776c-1.553-2.658-3.205-5.229-4.95-7.701
			c-7.23-10.237-15.628-18.269-24.801-23.858c-10.114-3.182-20.886-4.897-32.059-4.897s-21.939,1.716-32.059,4.897
			c-9.172,5.589-17.571,13.622-24.801,23.858c-1.745,2.472-3.397,5.043-4.95,7.701c-1.483,2.518-2.873,5.113-4.17,7.782
			c-8.37,17.106-13.116,37.131-13.697,58.174c-0.041,1.448-0.058,2.902-0.058,4.362s0.017,2.914,0.058,4.362
			c0.582,21.043,5.328,41.074,13.697,58.18c1.297,2.67,2.687,5.264,4.17,7.782c1.553,2.652,3.205,5.223,4.95,7.695
			c7.23,10.237,15.628,18.275,24.801,23.864c10.12,3.182,20.886,4.897,32.059,4.897s21.945-1.716,32.059-4.897
			c9.172-5.589,17.571-13.627,24.801-23.864c1.745-2.472,3.397-5.043,4.95-7.695c1.483-2.518,2.873-5.112,4.17-7.782
			c8.364-17.106,13.116-37.137,13.691-58.18c0.041-1.448,0.058-2.902,0.058-4.362S294.689,210.502,294.648,209.053z
			 M160.339,278.755c-1.437-2.484-2.792-5.072-4.054-7.759c-7.241-15.291-11.679-33.542-12.255-53.219
			c-0.041-1.448-0.064-2.902-0.064-4.362s0.023-2.914,0.064-4.362c0.576-19.671,5.014-37.922,12.255-53.213
			c1.262-2.687,2.617-5.275,4.054-7.765c9.672-16.797,22.986-29.07,38.178-34.293c-3.618,5.642-6.857,13.308-9.649,22.916
			c-1.966,6.782-3.641,14.285-5.002,22.34c-0.483,2.844-0.925,5.752-1.326,8.73v0.006c-1.739,12.842-2.728,26.819-2.891,41.278
			c-0.023,1.448-0.029,2.902-0.029,4.362s0.006,2.914,0.029,4.362c0.163,14.465,1.152,28.441,2.896,41.284
			c0.395,2.978,0.838,5.892,1.32,8.736c1.361,8.055,3.036,15.564,5.002,22.34c2.792,9.603,6.031,17.268,9.649,22.91
			C183.325,307.825,170.011,295.553,160.339,278.755z M214.977,315.834c-7.631,0-17.321-18.333-22.654-50.328
			c-0.465-2.78-0.902-5.671-1.291-8.655c-1.53-11.58-2.501-24.661-2.658-39.074c-0.023-1.442-0.029-2.896-0.029-4.362
			c0-1.466,0.006-2.92,0.029-4.362c0.157-14.413,1.128-27.493,2.658-39.068c0.39-2.984,0.82-5.874,1.285-8.655
			c5.339-31.995,15.029-50.328,22.66-50.328s17.321,18.333,22.66,50.328c0.465,2.78,0.896,5.671,1.285,8.655
			c1.53,11.574,2.501,24.655,2.658,39.068c0.023,1.442,0.029,2.896,0.029,4.362c0,1.466-0.006,2.92-0.029,4.362
			c-0.157,14.413-1.128,27.493-2.658,39.074c-0.39,2.984-0.826,5.874-1.291,8.655C232.298,297.501,222.608,315.834,214.977,315.834z
			 M273.663,270.997c-1.262,2.687-2.617,5.275-4.054,7.759c-9.672,16.797-22.986,29.07-38.178,34.293
			c3.618-5.642,6.863-13.308,9.649-22.91c1.966-6.776,3.647-14.285,5.002-22.34c0.489-2.844,0.931-5.758,1.326-8.736
			c1.745-12.842,2.734-26.819,2.896-41.284c0.023-1.448,0.029-2.902,0.029-4.362s-0.006-2.914-0.029-4.362
			c-0.163-14.459-1.152-28.436-2.891-41.278v-0.006c-0.401-2.978-0.843-5.886-1.326-8.73c-1.361-8.055-3.042-15.558-5.008-22.34
			c-2.786-9.608-6.031-17.274-9.649-22.916c15.192,5.223,28.511,17.501,38.178,34.298c1.437,2.489,2.792,5.078,4.054,7.759
			c7.241,15.291,11.679,33.542,12.255,53.213c0.041,1.448,0.064,2.902,0.064,4.362s-0.023,2.914-0.064,4.362
			C285.342,237.454,280.904,255.706,273.663,270.997z M188.373,217.778h-8.724c0.163,14.465,1.152,28.441,2.896,41.284
			c0.11-0.035,0.215-0.064,0.326-0.099c0.512-0.151,1.024-0.302,1.535-0.448c0.285-0.081,0.576-0.163,0.861-0.238
			c0.105-0.029,0.204-0.058,0.308-0.087c0.366-0.099,0.739-0.198,1.111-0.297c0.186-0.047,0.378-0.099,0.564-0.145
			c0.029-0.006,0.058-0.017,0.087-0.023c0.064-0.017,0.128-0.029,0.192-0.047c0.355-0.087,0.71-0.18,1.064-0.262
			c0.256-0.064,0.512-0.128,0.768-0.186c0.279-0.07,0.558-0.128,0.838-0.192c0.279-0.064,0.553-0.128,0.832-0.186
			C189.502,245.271,188.53,232.19,188.373,217.778z M250.305,209.053c-0.163-14.459-1.152-28.436-2.891-41.278
			c-0.582,0.175-1.163,0.349-1.751,0.512c-0.285,0.081-0.576,0.163-0.867,0.244c-0.529,0.145-1.064,0.291-1.599,0.43
			c-0.634,0.163-1.262,0.326-1.896,0.477c-0.233,0.058-0.471,0.116-0.71,0.169c-0.553,0.134-1.111,0.256-1.669,0.378
			c1.53,11.574,2.501,24.655,2.658,39.068c0.023,1.442,0.029,2.896,0.029,4.362c0,1.466-0.006,2.92-0.029,4.362h8.724
			c0.023-1.448,0.029-2.902,0.029-4.362S250.328,210.502,250.305,209.053z M188.373,217.778h-8.724
			c0.163,14.465,1.152,28.441,2.896,41.284c0.11-0.035,0.215-0.064,0.326-0.099c0.512-0.151,1.024-0.302,1.535-0.448
			c0.285-0.081,0.576-0.163,0.861-0.238c0.105-0.029,0.204-0.058,0.308-0.087c0.366-0.099,0.739-0.198,1.111-0.297
			c0.186-0.047,0.378-0.099,0.564-0.145c0.029-0.006,0.058-0.017,0.087-0.023c0.064-0.017,0.128-0.029,0.192-0.047
			c0.355-0.087,0.71-0.18,1.064-0.262c0.256-0.064,0.512-0.128,0.768-0.186c0.279-0.07,0.558-0.128,0.838-0.192
			c0.279-0.064,0.553-0.128,0.832-0.186C189.502,245.271,188.53,232.19,188.373,217.778z M250.305,209.053
			c-0.163-14.459-1.152-28.436-2.891-41.278c-0.582,0.175-1.163,0.349-1.751,0.512c-0.285,0.081-0.576,0.163-0.867,0.244
			c-0.529,0.145-1.064,0.291-1.599,0.43c-0.634,0.163-1.262,0.326-1.896,0.477c-0.233,0.058-0.471,0.116-0.71,0.169
			c-0.553,0.134-1.111,0.256-1.669,0.378c1.53,11.574,2.501,24.655,2.658,39.068c0.023,1.442,0.029,2.896,0.029,4.362
			c0,1.466-0.006,2.92-0.029,4.362h8.724c0.023-1.448,0.029-2.902,0.029-4.362S250.328,210.502,250.305,209.053z M188.373,217.778
			h-8.724c0.163,14.465,1.152,28.441,2.896,41.284c0.11-0.035,0.215-0.064,0.326-0.099c0.512-0.151,1.024-0.302,1.535-0.448
			c0.285-0.081,0.576-0.163,0.861-0.238c0.105-0.029,0.204-0.058,0.308-0.087c0.366-0.099,0.739-0.198,1.111-0.297
			c0.186-0.047,0.378-0.099,0.564-0.145c0.029-0.006,0.058-0.017,0.087-0.023c0.064-0.017,0.128-0.029,0.192-0.047
			c0.355-0.087,0.71-0.18,1.064-0.262c0.256-0.064,0.512-0.128,0.768-0.186c0.279-0.07,0.558-0.128,0.838-0.192
			c0.279-0.064,0.553-0.128,0.832-0.186C189.502,245.271,188.53,232.19,188.373,217.778z M250.305,209.053
			c-0.163-14.459-1.152-28.436-2.891-41.278c-0.582,0.175-1.163,0.349-1.751,0.512c-0.285,0.081-0.576,0.163-0.867,0.244
			c-0.529,0.145-1.064,0.291-1.599,0.43c-0.634,0.163-1.262,0.326-1.896,0.477c-0.233,0.058-0.471,0.116-0.71,0.169
			c-0.553,0.134-1.111,0.256-1.669,0.378c1.53,11.574,2.501,24.655,2.658,39.068c0.023,1.442,0.029,2.896,0.029,4.362
			c0,1.466-0.006,2.92-0.029,4.362h8.724c0.023-1.448,0.029-2.902,0.029-4.362S250.328,210.502,250.305,209.053z M188.373,217.778
			h-8.724c0.163,14.465,1.152,28.441,2.896,41.284c0.11-0.035,0.215-0.064,0.326-0.099c0.512-0.151,1.024-0.302,1.535-0.448
			c0.285-0.081,0.576-0.163,0.861-0.238c0.105-0.029,0.204-0.058,0.308-0.087c0.366-0.099,0.739-0.198,1.111-0.297
			c0.186-0.047,0.378-0.099,0.564-0.145c0.029-0.006,0.058-0.017,0.087-0.023c0.064-0.017,0.128-0.029,0.192-0.047
			c0.355-0.087,0.71-0.18,1.064-0.262c0.256-0.064,0.512-0.128,0.768-0.186c0.279-0.07,0.558-0.128,0.838-0.192
			c0.279-0.064,0.553-0.128,0.832-0.186C189.502,245.271,188.53,232.19,188.373,217.778z M250.305,209.053
			c-0.163-14.459-1.152-28.436-2.891-41.278c-0.582,0.175-1.163,0.349-1.751,0.512c-0.285,0.081-0.576,0.163-0.867,0.244
			c-0.529,0.145-1.064,0.291-1.599,0.43c-0.634,0.163-1.262,0.326-1.896,0.477c-0.233,0.058-0.471,0.116-0.71,0.169
			c-0.553,0.134-1.111,0.256-1.669,0.378c1.53,11.574,2.501,24.655,2.658,39.068c0.023,1.442,0.029,2.896,0.029,4.362
			c0,1.466-0.006,2.92-0.029,4.362h8.724c0.023-1.448,0.029-2.902,0.029-4.362S250.328,210.502,250.305,209.053z"/>
		<path style="fill:#51B7A6;" d="M321.752,213.416c0,1.46-0.029,2.914-0.087,4.362H108.284c-0.058-1.448-0.087-2.902-0.087-4.362
			s0.029-2.914,0.087-4.362h213.381C321.723,210.502,321.752,211.956,321.752,213.416z"/>
	</g>
</g>
</svg>