<?xml version="1.0" encoding="iso-8859-1"?>
<!-- Uploaded to: SVG Repo, www.svgrepo.com, Generator: SVG Repo Mixer Tools -->
<svg height="800px" width="800px" version="1.1" id="Layer_1" xmlns="http://www.w3.org/2000/svg" xmlns:xlink="http://www.w3.org/1999/xlink" 
	 viewBox="0 0 512 512" xml:space="preserve">
<circle style="fill:#FFBBD5;" cx="256" cy="256" r="256"/>
<path style="fill:#FF9CC2;" d="M321.839,503.42c42.194-11.186,82.091-33.313,115.179-66.401
	c49.888-49.888,74.878-115.243,74.976-180.631l-58.608-58.606L333.972,298.92l-48.381-31.116l-42.884-42.884l-6.528,16.139
	l-41.962-42.577l-9.987,16.139l-81.922,69.268L321.839,503.42z"/>
<path style="fill:#FFFFFF;" d="M209.248,234.658c0,0-6.087-66.676-60.254-36.876s-90.381,0-90.381,0s16.737,96.847,90.381,110.63
	c73.644,13.783,90.381-36.876,90.381-36.876L209.248,234.658z"/>
<path style="fill:#E6F3FF;" d="M302.752,234.658c0,0,6.087-66.676,60.254-36.876s90.381,0,90.381,0s-16.737,96.847-90.381,110.63
	c-73.644,13.783-90.381-36.876-90.381-36.876L302.752,234.658z"/>
<path style="fill:#F1543F;" d="M173.44,255.257c0-22.797,18.482-41.277,41.279-41.277s41.279,18.48,41.279,41.277
	c0-22.797,18.482-41.277,41.279-41.277s41.279,18.48,41.279,41.277c0,39.469-82.56,86.68-82.56,86.68S173.44,296.951,173.44,255.257
	z"/>
<path style="fill:#C1321F;" d="M256,255.257c0-22.797,18.482-41.277,41.279-41.277c22.797,0,41.279,18.48,41.279,41.277
	c0,39.469-82.56,86.68-82.56,86.68v-86.68H256z"/>
</svg>