<!DOCTYPE svg PUBLIC "-//W3C//DTD SVG 1.1//EN" "http://www.w3.org/Graphics/SVG/1.1/DTD/svg11.dtd">
<!-- Uploaded to: SVG Repo, www.svgrepo.com, Transformed by: SVG Repo Mixer Tools -->
<svg fill="#726e6e" width="800px" height="800px" viewBox="-19.2 -19.2 230.40 230.40" xmlns="http://www.w3.org/2000/svg" data-name="Layer 1" stroke="#726e6e" transform="matrix(-1, 0, 0, -1, 0, 0)rotate(0)">
<g id="SVGRepo_bgCarrier" stroke-width="0">
<path transform="translate(-19.2, -19.2), scale(14.399999999999999)" fill="#7ed0ec" d="M9.166.33a2.25 2.25 0 00-2.332 0l-5.25 3.182A2.25 2.25 0 00.5 5.436v5.128a2.25 2.25 0 001.084 1.924l5.25 3.182a2.25 2.25 0 002.332 0l5.25-3.182a2.25 2.25 0 001.084-1.924V5.436a2.25 2.25 0 00-1.084-1.924L9.166.33z" strokewidth="0"/>
</g>
<g id="SVGRepo_tracerCarrier" stroke-linecap="round" stroke-linejoin="round"/>
<g id="SVGRepo_iconCarrier">
<path d="M0 0h192v192H0z" style="fill:none"/>
<circle cx="28.97" cy="96" r="12.97"/>
<circle cx="62.49" cy="62.49" r="12.97"/>
<circle cx="96" cy="28.97" r="12.97"/>
<circle cx="62.49" cy="129.51" r="12.97"/>
<circle cx="96" cy="96" r="12.97"/>
<circle cx="129.51" cy="62.49" r="12.97"/>
<circle cx="96" cy="163.03" r="12.97"/>
<circle cx="129.51" cy="129.51" r="12.97"/>
<circle cx="163.03" cy="96" r="12.97"/>
</g>
</svg>